<svg xmlns:xlink="http://www.w3.org/1999/xlink" data-v-12dae9fe="" width="14" height="15" viewBox="0 0 13 14" xmlns="http://www.w3.org/2000/svg" class="applications"><path data-v-12dae9fe="" d="M6.5 0.938545C2.925 0.938545 0 3.8472 0 7.40223C0 10.9573 2.925 13.8659 6.5 13.8659C10.075 13.8659 13 10.9573 13 7.40223C13 3.8472 10.108 0.938545 6.5 0.938545ZM9.49102 10.2781C9.36152 10.4725 9.13301 10.5356 8.9375 10.4068C7.40898 9.47011 5.49199 9.27569 3.21699 9.79329C2.98848 9.85894 2.79551 9.69735 2.72949 9.50293C2.66348 9.27569 2.82598 9.0838 3.02148 9.01815C5.49199 8.46773 7.6375 8.69497 9.32598 9.73017C9.55449 9.82611 9.5875 10.0837 9.49102 10.2781ZM10.2705 8.50055C10.108 8.72779 9.81602 8.82374 9.5875 8.66215C7.83301 7.59665 5.16699 7.27346 3.12051 7.91983C2.86152 7.98548 2.56699 7.85419 2.50352 7.59665C2.4375 7.33911 2.56953 7.04622 2.82852 6.9831C5.2 6.27109 8.125 6.62709 10.141 7.85671C10.334 7.95266 10.433 8.27584 10.2705 8.50055ZM10.334 6.69022C8.25449 5.46313 4.77598 5.33183 2.79297 5.9479C2.46797 6.04385 2.14297 5.85196 2.04648 5.55907C1.95 5.23589 2.14297 4.9127 2.4375 4.81676C4.74551 4.13757 8.54648 4.26633 10.9535 5.69036C11.2455 5.85196 11.3445 6.24079 11.182 6.53115C11.017 6.75586 10.6285 6.85181 10.334 6.69022Z" fill="#FFFFFF"></path></svg>